<?xml version="1.0" encoding="UTF-8" standalone="no"?>
<!-- Created with Inkscape (http://www.inkscape.org/) -->

<svg
   width="200"
   height="200"
   viewBox="0 0 52.916668 52.916668"
   version="1.1"
   id="svg1"
   inkscape:version="1.4 (e7c3feb100, 2024-10-09)"
   sodipodi:docname="icon.svg"
   inkscape:export-filename="/home/ernugraha/icn.png"
   inkscape:export-xdpi="96"
   inkscape:export-ydpi="96"
   xmlns:inkscape="http://www.inkscape.org/namespaces/inkscape"
   xmlns:sodipodi="http://sodipodi.sourceforge.net/DTD/sodipodi-0.dtd"
   xmlns="http://www.w3.org/2000/svg"
   xmlns:svg="http://www.w3.org/2000/svg">
  <sodipodi:namedview
     id="namedview1"
     pagecolor="#ffffff"
     bordercolor="#999999"
     borderopacity="1"
     inkscape:showpageshadow="2"
     inkscape:pageopacity="0"
     inkscape:pagecheckerboard="0"
     inkscape:deskcolor="#d1d1d1"
     inkscape:document-units="mm"
     inkscape:zoom="1.9456229"
     inkscape:cx="103.05183"
     inkscape:cy="142.37086"
     inkscape:window-width="1366"
     inkscape:window-height="741"
     inkscape:window-x="0"
     inkscape:window-y="0"
     inkscape:window-maximized="1"
     inkscape:current-layer="layer1" />
  <defs
     id="defs1" />
  <g
     inkscape:label="Layer 1"
     inkscape:groupmode="layer"
     id="layer1">
    <rect
       style="fill:#1f1c24;stroke:none;stroke-width:0.600001;stroke-linecap:round;stroke-linejoin:round"
       id="rect4"
       width="45.42033"
       height="46.100273"
       x="3.8076923"
       y="3.2637365"
       ry="12.103022" />
    <path
       id="text1"
       style="font-size:50.8px;font-family:'Bebas Neue';-inkscape-font-specification:'Bebas Neue';fill:#ff0000;stroke-width:0.481537;stroke-linecap:round;stroke-linejoin:round"
       d="m 22.460054,10.316131 v 3.470345 h 8.49e-4 v -3.470345 z m -1.550961,3.579394 c -0.355628,0.09981 -0.644673,0.267645 -0.862961,0.50798 -0.373585,0.385609 -0.560399,1.09267 -0.560399,2.120962 v 5.7843 c 0,0.107067 -0.003,0.211879 -0.0092,0.314203 0.0062,-0.102506 0.01009,-0.20734 0.01009,-0.314594 v -5.783909 c 0,-1.028292 0.186813,-1.735353 0.560397,-2.120962 0.218107,-0.240135 0.506848,-0.40804 0.862085,-0.50798 z m -1.432568,8.727445 c -0.0053,0.08665 -0.01396,0.170543 -0.02368,0.253793 0.0097,-0.08328 0.01841,-0.167119 0.02368,-0.253793 z m -0.0285,0.302826 c -0.0092,0.07194 -0.0216,0.141287 -0.03421,0.210645 0.01258,-0.06936 0.02499,-0.138704 0.03421,-0.210645 z m -0.04823,0.292236 c -0.01355,0.06656 -0.03016,0.130843 -0.04692,0.194954 0.01673,-0.0641 0.03338,-0.128409 0.04692,-0.194954 z m -0.06709,0.274191 c -0.01722,0.06016 -0.03731,0.118193 -0.05745,0.176125 0.02011,-0.05795 0.04024,-0.115952 0.05745,-0.176125 z m -0.08814,0.264384 c -0.02121,0.05575 -0.04483,0.109564 -0.06884,0.163182 0.02396,-0.05359 0.04767,-0.107457 0.06884,-0.163182 z m -5.108485,0.06786 c -0.142524,0.04346 -0.305208,0.07812 -0.482784,0.10591 0.177669,-0.02779 0.340201,-0.06243 0.482784,-0.10591 z m -0.858137,0.151805 c -0.222126,0.01919 -0.46556,0.029 -0.730535,0.02903 0.264782,-4.4e-5 0.508522,-0.0099 0.730535,-0.02903 z m 5.861382,0.02432 c -0.02552,0.05275 -0.05321,0.103959 -0.08156,0.154552 0.02835,-0.05068 0.05604,-0.101722 0.08156,-0.154552 z m -0.125845,0.232221 c -0.03092,0.05134 -0.06382,0.101208 -0.09779,0.150237 0.03396,-0.04908 0.06687,-0.09883 0.09779,-0.150237 z m -0.140757,0.211822 c -0.03678,0.05015 -0.07568,0.09869 -0.115763,0.146314 0.04003,-0.04762 0.07904,-0.09618 0.115763,-0.146314 z m -0.163121,0.202016 c -0.04232,0.04771 -0.08663,0.0938 -0.132426,0.13886 0.04574,-0.04507 0.09015,-0.09115 0.132426,-0.13886 z m -0.178907,0.183578 c -0.04764,0.04484 -0.097,0.0885 -0.148211,0.130623 0.05122,-0.04218 0.100562,-0.08572 0.148211,-0.130623 z m -0.200839,0.172988 c -0.0547,0.043 -0.111115,0.0847 -0.169698,0.12474 0.05857,-0.04006 0.115018,-0.08171 0.169698,-0.12474 z m -0.207847,0.149844 c -0.0652,0.04324 -0.132269,0.08506 -0.202146,0.12474 0.06986,-0.0397 0.136965,-0.08147 0.202146,-0.12474 z m -0.227141,0.138469 c -0.07407,0.04129 -0.150091,0.08111 -0.229334,0.118464 0.07918,-0.03735 0.155325,-0.07717 0.229334,-0.118464 z m -0.247312,0.126309 c -0.08306,0.03867 -0.168706,0.07545 -0.257398,0.109833 0.08874,-0.0344 0.174301,-0.07113 0.257398,-0.109833 z m -0.259152,0.110618 c -0.09271,0.03589 -0.18837,0.0696 -0.287214,0.100811 0.09883,-0.0312 0.194528,-0.06492 0.287214,-0.100811 z m -0.287214,0.100811 h -4.554663 v 1.846379 c 1.063279,0 1.781625,0.167116 2.155209,0.501312 0.373586,0.308487 0.560399,0.912496 0.560399,1.812251 v 7.095242 c 0,1.413902 0.445242,2.481056 1.336099,3.200861 0.890857,0.719804 2.040647,1.079505 3.448774,1.079505 h 2.413924 v -3.470345 h -0.689755 c -0.775907,0 -1.350583,-0.192977 -1.724169,-0.578586 -0.373584,-0.411318 -0.560397,-1.131113 -0.560397,-2.159405 v -5.783908 c 0,-1.799511 -0.876688,-2.93073 -2.629664,-3.393462 v -0.07728 c 0.08407,-0.02219 0.164211,-0.04731 0.244243,-0.07257 z" />
    <path
       id="text1-5-9"
       style="font-size:50.8px;font-family:'Bebas Neue';-inkscape-font-specification:'Bebas Neue';fill:#0066ff;stroke-width:0.481537;stroke-linecap:round;stroke-linejoin:round"
       d="m 20.038794,10.320387 c -1.408129,0 -2.55748,0.360094 -3.448337,1.079898 -0.890856,0.719805 -1.336537,1.786567 -1.336537,3.200468 v 7.095241 c 0,0.899756 -0.186375,1.516892 -0.55996,1.851086 -0.373585,0.308488 -1.092368,0.462477 -2.155649,0.462477 v 1.623967 h 4.55554 c 1.588605,-0.501634 2.384544,-1.607433 2.384544,-3.320501 v -5.7843 c 0,-1.028293 0.186813,-1.735354 0.560399,-2.120963 0.373585,-0.411316 0.94826,-0.616636 1.724168,-0.616636 h 0.689755 v -3.470737 z" />
    <text
       xml:space="preserve"
       style="font-size:38.9168px;font-family:'Bebas Neue';-inkscape-font-specification:'Bebas Neue';text-align:start;writing-mode:lr-tb;direction:ltr;text-anchor:start;fill:#ffffff;stroke:#000000;stroke-width:0.459648;stroke-linecap:round;stroke-linejoin:round"
       x="20.344273"
       y="44.11639"
       id="text2"
       transform="scale(1.159043,0.86278075)"><tspan
         sodipodi:role="line"
         id="tspan2"
         style="stroke-width:0.459648"
         x="20.344273"
         y="44.11639">E</tspan></text>
  </g>
</svg>
